<?xml version="1.0" standalone="no"?>
<svg xmlns="http://www.w3.org/2000/svg" width="1024" height="1331" viewBox="0 0 1000 1300"><defs><clipPath id="clip-path-dot-color"><rect x="239" y="365" width="18" height="18" transform="rotate(0,248,374)"/><rect x="239" y="401" width="18" height="18" transform="rotate(0,248,410)"/><rect x="239" y="473" width="18" height="18" transform="rotate(0,248,482)"/><rect x="239" y="509" width="18" height="18" transform="rotate(0,248,518)"/><rect x="239" y="545" width="18" height="18" transform="rotate(0,248,554)"/><rect x="257" y="329" width="18" height="18" transform="rotate(0,266,338)"/><rect x="257" y="383" width="18" height="18" transform="rotate(0,266,392)"/><rect x="257" y="401" width="18" height="18" transform="rotate(0,266,410)"/><rect x="257" y="455" width="18" height="18" transform="rotate(0,266,464)"/><rect x="257" y="509" width="18" height="18" transform="rotate(0,266,518)"/><rect x="257" y="527" width="18" height="18" transform="rotate(0,266,536)"/><rect x="257" y="545" width="18" height="18" transform="rotate(0,266,554)"/><rect x="275" y="329" width="18" height="18" transform="rotate(0,284,338)"/><rect x="275" y="347" width="18" height="18" transform="rotate(0,284,356)"/><rect x="275" y="383" width="18" height="18" transform="rotate(0,284,392)"/><rect x="275" y="401" width="18" height="18" transform="rotate(0,284,410)"/><rect x="275" y="437" width="18" height="18" transform="rotate(0,284,446)"/><rect x="275" y="455" width="18" height="18" transform="rotate(0,284,464)"/><rect x="275" y="473" width="18" height="18" transform="rotate(0,284,482)"/><rect x="275" y="545" width="18" height="18" transform="rotate(0,284,554)"/><rect x="293" y="365" width="18" height="18" transform="rotate(0,302,374)"/><rect x="293" y="383" width="18" height="18" transform="rotate(0,302,392)"/><rect x="293" y="437" width="18" height="18" transform="rotate(0,302,446)"/><rect x="293" y="455" width="18" height="18" transform="rotate(0,302,464)"/><rect x="293" y="491" width="18" height="18" transform="rotate(0,302,500)"/><rect x="293" y="527" width="18" height="18" transform="rotate(0,302,536)"/><rect x="311" y="347" width="18" height="18" transform="rotate(0,320,356)"/><rect x="311" y="365" width="18" height="18" transform="rotate(0,320,374)"/><rect x="311" y="401" width="18" height="18" transform="rotate(0,320,410)"/><rect x="311" y="437" width="18" height="18" transform="rotate(0,320,446)"/><rect x="311" y="491" width="18" height="18" transform="rotate(0,320,500)"/><rect x="311" y="509" width="18" height="18" transform="rotate(0,320,518)"/><rect x="311" y="527" width="18" height="18" transform="rotate(0,320,536)"/><rect x="329" y="347" width="18" height="18" transform="rotate(0,338,356)"/><rect x="329" y="365" width="18" height="18" transform="rotate(0,338,374)"/><rect x="329" y="383" width="18" height="18" transform="rotate(0,338,392)"/><rect x="329" y="419" width="18" height="18" transform="rotate(0,338,428)"/><rect x="329" y="437" width="18" height="18" transform="rotate(0,338,446)"/><rect x="329" y="473" width="18" height="18" transform="rotate(0,338,482)"/><rect x="329" y="527" width="18" height="18" transform="rotate(0,338,536)"/><rect x="347" y="329" width="18" height="18" transform="rotate(0,356,338)"/><rect x="347" y="365" width="18" height="18" transform="rotate(0,356,374)"/><rect x="347" y="401" width="18" height="18" transform="rotate(0,356,410)"/><rect x="347" y="437" width="18" height="18" transform="rotate(0,356,446)"/><rect x="347" y="473" width="18" height="18" transform="rotate(0,356,482)"/><rect x="347" y="509" width="18" height="18" transform="rotate(0,356,518)"/><rect x="347" y="545" width="18" height="18" transform="rotate(0,356,554)"/><rect x="365" y="383" width="18" height="18" transform="rotate(0,374,392)"/><rect x="365" y="419" width="18" height="18" transform="rotate(0,374,428)"/><rect x="365" y="437" width="18" height="18" transform="rotate(0,374,446)"/><rect x="365" y="455" width="18" height="18" transform="rotate(0,374,464)"/><rect x="365" y="473" width="18" height="18" transform="rotate(0,374,482)"/><rect x="365" y="491" width="18" height="18" transform="rotate(0,374,500)"/><rect x="365" y="509" width="18" height="18" transform="rotate(0,374,518)"/><rect x="365" y="527" width="18" height="18" transform="rotate(0,374,536)"/><rect x="365" y="545" width="18" height="18" transform="rotate(0,374,554)"/><rect x="383" y="203" width="18" height="18" transform="rotate(0,392,212)"/><rect x="383" y="221" width="18" height="18" transform="rotate(0,392,230)"/><rect x="383" y="239" width="18" height="18" transform="rotate(0,392,248)"/><rect x="383" y="275" width="18" height="18" transform="rotate(0,392,284)"/><rect x="383" y="293" width="18" height="18" transform="rotate(0,392,302)"/><rect x="383" y="347" width="18" height="18" transform="rotate(0,392,356)"/><rect x="383" y="383" width="18" height="18" transform="rotate(0,392,392)"/><rect x="383" y="455" width="18" height="18" transform="rotate(0,392,464)"/><rect x="383" y="473" width="18" height="18" transform="rotate(0,392,482)"/><rect x="383" y="527" width="18" height="18" transform="rotate(0,392,536)"/><rect x="383" y="653" width="18" height="18" transform="rotate(0,392,662)"/><rect x="383" y="671" width="18" height="18" transform="rotate(0,392,680)"/><rect x="401" y="221" width="18" height="18" transform="rotate(0,410,230)"/><rect x="401" y="257" width="18" height="18" transform="rotate(0,410,266)"/><rect x="401" y="275" width="18" height="18" transform="rotate(0,410,284)"/><rect x="401" y="329" width="18" height="18" transform="rotate(0,410,338)"/><rect x="401" y="383" width="18" height="18" transform="rotate(0,410,392)"/><rect x="401" y="401" width="18" height="18" transform="rotate(0,410,410)"/><rect x="401" y="419" width="18" height="18" transform="rotate(0,410,428)"/><rect x="401" y="437" width="18" height="18" transform="rotate(0,410,446)"/><rect x="401" y="491" width="18" height="18" transform="rotate(0,410,500)"/><rect x="401" y="599" width="18" height="18" transform="rotate(0,410,608)"/><rect x="401" y="617" width="18" height="18" transform="rotate(0,410,626)"/><rect x="401" y="635" width="18" height="18" transform="rotate(0,410,644)"/><rect x="401" y="653" width="18" height="18" transform="rotate(0,410,662)"/><rect x="401" y="689" width="18" height="18" transform="rotate(0,410,698)"/><rect x="419" y="185" width="18" height="18" transform="rotate(0,428,194)"/><rect x="419" y="239" width="18" height="18" transform="rotate(0,428,248)"/><rect x="419" y="257" width="18" height="18" transform="rotate(0,428,266)"/><rect x="419" y="293" width="18" height="18" transform="rotate(0,428,302)"/><rect x="419" y="311" width="18" height="18" transform="rotate(0,428,320)"/><rect x="419" y="347" width="18" height="18" transform="rotate(0,428,356)"/><rect x="419" y="365" width="18" height="18" transform="rotate(0,428,374)"/><rect x="419" y="419" width="18" height="18" transform="rotate(0,428,428)"/><rect x="419" y="491" width="18" height="18" transform="rotate(0,428,500)"/><rect x="419" y="581" width="18" height="18" transform="rotate(0,428,590)"/><rect x="419" y="617" width="18" height="18" transform="rotate(0,428,626)"/><rect x="419" y="671" width="18" height="18" transform="rotate(0,428,680)"/><rect x="437" y="185" width="18" height="18" transform="rotate(0,446,194)"/><rect x="437" y="239" width="18" height="18" transform="rotate(0,446,248)"/><rect x="437" y="275" width="18" height="18" transform="rotate(0,446,284)"/><rect x="437" y="311" width="18" height="18" transform="rotate(0,446,320)"/><rect x="437" y="329" width="18" height="18" transform="rotate(0,446,338)"/><rect x="437" y="365" width="18" height="18" transform="rotate(0,446,374)"/><rect x="437" y="383" width="18" height="18" transform="rotate(0,446,392)"/><rect x="437" y="401" width="18" height="18" transform="rotate(0,446,410)"/><rect x="437" y="455" width="18" height="18" transform="rotate(0,446,464)"/><rect x="437" y="473" width="18" height="18" transform="rotate(0,446,482)"/><rect x="437" y="509" width="18" height="18" transform="rotate(0,446,518)"/><rect x="437" y="527" width="18" height="18" transform="rotate(0,446,536)"/><rect x="437" y="545" width="18" height="18" transform="rotate(0,446,554)"/><rect x="437" y="599" width="18" height="18" transform="rotate(0,446,608)"/><rect x="437" y="689" width="18" height="18" transform="rotate(0,446,698)"/><rect x="455" y="239" width="18" height="18" transform="rotate(0,464,248)"/><rect x="455" y="257" width="18" height="18" transform="rotate(0,464,266)"/><rect x="455" y="293" width="18" height="18" transform="rotate(0,464,302)"/><rect x="455" y="311" width="18" height="18" transform="rotate(0,464,320)"/><rect x="455" y="347" width="18" height="18" transform="rotate(0,464,356)"/><rect x="455" y="383" width="18" height="18" transform="rotate(0,464,392)"/><rect x="455" y="437" width="18" height="18" transform="rotate(0,464,446)"/><rect x="455" y="473" width="18" height="18" transform="rotate(0,464,482)"/><rect x="455" y="491" width="18" height="18" transform="rotate(0,464,500)"/><rect x="455" y="509" width="18" height="18" transform="rotate(0,464,518)"/><rect x="455" y="545" width="18" height="18" transform="rotate(0,464,554)"/><rect x="455" y="563" width="18" height="18" transform="rotate(0,464,572)"/><rect x="455" y="599" width="18" height="18" transform="rotate(0,464,608)"/><rect x="455" y="635" width="18" height="18" transform="rotate(0,464,644)"/><rect x="455" y="653" width="18" height="18" transform="rotate(0,464,662)"/><rect x="455" y="671" width="18" height="18" transform="rotate(0,464,680)"/><rect x="455" y="689" width="18" height="18" transform="rotate(0,464,698)"/><rect x="473" y="203" width="18" height="18" transform="rotate(0,482,212)"/><rect x="473" y="221" width="18" height="18" transform="rotate(0,482,230)"/><rect x="473" y="257" width="18" height="18" transform="rotate(0,482,266)"/><rect x="473" y="329" width="18" height="18" transform="rotate(0,482,338)"/><rect x="473" y="347" width="18" height="18" transform="rotate(0,482,356)"/><rect x="473" y="401" width="18" height="18" transform="rotate(0,482,410)"/><rect x="473" y="455" width="18" height="18" transform="rotate(0,482,464)"/><rect x="473" y="527" width="18" height="18" transform="rotate(0,482,536)"/><rect x="473" y="581" width="18" height="18" transform="rotate(0,482,590)"/><rect x="473" y="599" width="18" height="18" transform="rotate(0,482,608)"/><rect x="473" y="635" width="18" height="18" transform="rotate(0,482,644)"/><rect x="473" y="653" width="18" height="18" transform="rotate(0,482,662)"/><rect x="491" y="257" width="18" height="18" transform="rotate(0,500,266)"/><rect x="491" y="275" width="18" height="18" transform="rotate(0,500,284)"/><rect x="491" y="293" width="18" height="18" transform="rotate(0,500,302)"/><rect x="491" y="347" width="18" height="18" transform="rotate(0,500,356)"/><rect x="491" y="419" width="18" height="18" transform="rotate(0,500,428)"/><rect x="491" y="437" width="18" height="18" transform="rotate(0,500,446)"/><rect x="491" y="455" width="18" height="18" transform="rotate(0,500,464)"/><rect x="491" y="473" width="18" height="18" transform="rotate(0,500,482)"/><rect x="491" y="491" width="18" height="18" transform="rotate(0,500,500)"/><rect x="491" y="509" width="18" height="18" transform="rotate(0,500,518)"/><rect x="491" y="527" width="18" height="18" transform="rotate(0,500,536)"/><rect x="491" y="545" width="18" height="18" transform="rotate(0,500,554)"/><rect x="491" y="581" width="18" height="18" transform="rotate(0,500,590)"/><rect x="491" y="599" width="18" height="18" transform="rotate(0,500,608)"/><rect x="491" y="617" width="18" height="18" transform="rotate(0,500,626)"/><rect x="491" y="635" width="18" height="18" transform="rotate(0,500,644)"/><rect x="491" y="671" width="18" height="18" transform="rotate(0,500,680)"/><rect x="491" y="689" width="18" height="18" transform="rotate(0,500,698)"/><rect x="509" y="203" width="18" height="18" transform="rotate(0,518,212)"/><rect x="509" y="275" width="18" height="18" transform="rotate(0,518,284)"/><rect x="509" y="311" width="18" height="18" transform="rotate(0,518,320)"/><rect x="509" y="365" width="18" height="18" transform="rotate(0,518,374)"/><rect x="509" y="437" width="18" height="18" transform="rotate(0,518,446)"/><rect x="509" y="473" width="18" height="18" transform="rotate(0,518,482)"/><rect x="509" y="491" width="18" height="18" transform="rotate(0,518,500)"/><rect x="509" y="509" width="18" height="18" transform="rotate(0,518,518)"/><rect x="509" y="617" width="18" height="18" transform="rotate(0,518,626)"/><rect x="509" y="635" width="18" height="18" transform="rotate(0,518,644)"/><rect x="509" y="671" width="18" height="18" transform="rotate(0,518,680)"/><rect x="509" y="689" width="18" height="18" transform="rotate(0,518,698)"/><rect x="527" y="203" width="18" height="18" transform="rotate(0,536,212)"/><rect x="527" y="221" width="18" height="18" transform="rotate(0,536,230)"/><rect x="527" y="239" width="18" height="18" transform="rotate(0,536,248)"/><rect x="527" y="257" width="18" height="18" transform="rotate(0,536,266)"/><rect x="527" y="293" width="18" height="18" transform="rotate(0,536,302)"/><rect x="527" y="401" width="18" height="18" transform="rotate(0,536,410)"/><rect x="527" y="419" width="18" height="18" transform="rotate(0,536,428)"/><rect x="527" y="473" width="18" height="18" transform="rotate(0,536,482)"/><rect x="527" y="491" width="18" height="18" transform="rotate(0,536,500)"/><rect x="527" y="509" width="18" height="18" transform="rotate(0,536,518)"/><rect x="527" y="563" width="18" height="18" transform="rotate(0,536,572)"/><rect x="527" y="599" width="18" height="18" transform="rotate(0,536,608)"/><rect x="527" y="635" width="18" height="18" transform="rotate(0,536,644)"/><rect x="545" y="257" width="18" height="18" transform="rotate(0,554,266)"/><rect x="545" y="275" width="18" height="18" transform="rotate(0,554,284)"/><rect x="545" y="329" width="18" height="18" transform="rotate(0,554,338)"/><rect x="545" y="401" width="18" height="18" transform="rotate(0,554,410)"/><rect x="545" y="437" width="18" height="18" transform="rotate(0,554,446)"/><rect x="545" y="473" width="18" height="18" transform="rotate(0,554,482)"/><rect x="545" y="491" width="18" height="18" transform="rotate(0,554,500)"/><rect x="545" y="599" width="18" height="18" transform="rotate(0,554,608)"/><rect x="545" y="635" width="18" height="18" transform="rotate(0,554,644)"/><rect x="563" y="185" width="18" height="18" transform="rotate(0,572,194)"/><rect x="563" y="221" width="18" height="18" transform="rotate(0,572,230)"/><rect x="563" y="239" width="18" height="18" transform="rotate(0,572,248)"/><rect x="563" y="293" width="18" height="18" transform="rotate(0,572,302)"/><rect x="563" y="329" width="18" height="18" transform="rotate(0,572,338)"/><rect x="563" y="347" width="18" height="18" transform="rotate(0,572,356)"/><rect x="563" y="365" width="18" height="18" transform="rotate(0,572,374)"/><rect x="563" y="419" width="18" height="18" transform="rotate(0,572,428)"/><rect x="563" y="437" width="18" height="18" transform="rotate(0,572,446)"/><rect x="563" y="455" width="18" height="18" transform="rotate(0,572,464)"/><rect x="563" y="473" width="18" height="18" transform="rotate(0,572,482)"/><rect x="563" y="491" width="18" height="18" transform="rotate(0,572,500)"/><rect x="563" y="545" width="18" height="18" transform="rotate(0,572,554)"/><rect x="563" y="581" width="18" height="18" transform="rotate(0,572,590)"/><rect x="563" y="599" width="18" height="18" transform="rotate(0,572,608)"/><rect x="563" y="617" width="18" height="18" transform="rotate(0,572,626)"/><rect x="563" y="635" width="18" height="18" transform="rotate(0,572,644)"/><rect x="563" y="653" width="18" height="18" transform="rotate(0,572,662)"/><rect x="581" y="221" width="18" height="18" transform="rotate(0,590,230)"/><rect x="581" y="239" width="18" height="18" transform="rotate(0,590,248)"/><rect x="581" y="329" width="18" height="18" transform="rotate(0,590,338)"/><rect x="581" y="347" width="18" height="18" transform="rotate(0,590,356)"/><rect x="581" y="419" width="18" height="18" transform="rotate(0,590,428)"/><rect x="581" y="491" width="18" height="18" transform="rotate(0,590,500)"/><rect x="581" y="545" width="18" height="18" transform="rotate(0,590,554)"/><rect x="581" y="563" width="18" height="18" transform="rotate(0,590,572)"/><rect x="581" y="581" width="18" height="18" transform="rotate(0,590,590)"/><rect x="581" y="635" width="18" height="18" transform="rotate(0,590,644)"/><rect x="581" y="653" width="18" height="18" transform="rotate(0,590,662)"/><rect x="581" y="689" width="18" height="18" transform="rotate(0,590,698)"/><rect x="599" y="203" width="18" height="18" transform="rotate(0,608,212)"/><rect x="599" y="293" width="18" height="18" transform="rotate(0,608,302)"/><rect x="599" y="365" width="18" height="18" transform="rotate(0,608,374)"/><rect x="599" y="419" width="18" height="18" transform="rotate(0,608,428)"/><rect x="599" y="437" width="18" height="18" transform="rotate(0,608,446)"/><rect x="599" y="473" width="18" height="18" transform="rotate(0,608,482)"/><rect x="599" y="491" width="18" height="18" transform="rotate(0,608,500)"/><rect x="599" y="509" width="18" height="18" transform="rotate(0,608,518)"/><rect x="599" y="527" width="18" height="18" transform="rotate(0,608,536)"/><rect x="599" y="545" width="18" height="18" transform="rotate(0,608,554)"/><rect x="599" y="563" width="18" height="18" transform="rotate(0,608,572)"/><rect x="599" y="581" width="18" height="18" transform="rotate(0,608,590)"/><rect x="599" y="599" width="18" height="18" transform="rotate(0,608,608)"/><rect x="599" y="617" width="18" height="18" transform="rotate(0,608,626)"/><rect x="599" y="653" width="18" height="18" transform="rotate(0,608,662)"/><rect x="617" y="329" width="18" height="18" transform="rotate(0,626,338)"/><rect x="617" y="383" width="18" height="18" transform="rotate(0,626,392)"/><rect x="617" y="419" width="18" height="18" transform="rotate(0,626,428)"/><rect x="617" y="437" width="18" height="18" transform="rotate(0,626,446)"/><rect x="617" y="509" width="18" height="18" transform="rotate(0,626,518)"/><rect x="617" y="527" width="18" height="18" transform="rotate(0,626,536)"/><rect x="617" y="545" width="18" height="18" transform="rotate(0,626,554)"/><rect x="617" y="617" width="18" height="18" transform="rotate(0,626,626)"/><rect x="617" y="635" width="18" height="18" transform="rotate(0,626,644)"/><rect x="617" y="689" width="18" height="18" transform="rotate(0,626,698)"/><rect x="635" y="365" width="18" height="18" transform="rotate(0,644,374)"/><rect x="635" y="383" width="18" height="18" transform="rotate(0,644,392)"/><rect x="635" y="401" width="18" height="18" transform="rotate(0,644,410)"/><rect x="635" y="419" width="18" height="18" transform="rotate(0,644,428)"/><rect x="635" y="473" width="18" height="18" transform="rotate(0,644,482)"/><rect x="635" y="491" width="18" height="18" transform="rotate(0,644,500)"/><rect x="635" y="527" width="18" height="18" transform="rotate(0,644,536)"/><rect x="635" y="545" width="18" height="18" transform="rotate(0,644,554)"/><rect x="635" y="581" width="18" height="18" transform="rotate(0,644,590)"/><rect x="635" y="617" width="18" height="18" transform="rotate(0,644,626)"/><rect x="635" y="653" width="18" height="18" transform="rotate(0,644,662)"/><rect x="635" y="671" width="18" height="18" transform="rotate(0,644,680)"/><rect x="653" y="329" width="18" height="18" transform="rotate(0,662,338)"/><rect x="653" y="347" width="18" height="18" transform="rotate(0,662,356)"/><rect x="653" y="365" width="18" height="18" transform="rotate(0,662,374)"/><rect x="653" y="383" width="18" height="18" transform="rotate(0,662,392)"/><rect x="653" y="455" width="18" height="18" transform="rotate(0,662,464)"/><rect x="653" y="509" width="18" height="18" transform="rotate(0,662,518)"/><rect x="653" y="545" width="18" height="18" transform="rotate(0,662,554)"/><rect x="653" y="617" width="18" height="18" transform="rotate(0,662,626)"/><rect x="653" y="671" width="18" height="18" transform="rotate(0,662,680)"/><rect x="671" y="347" width="18" height="18" transform="rotate(0,680,356)"/><rect x="671" y="383" width="18" height="18" transform="rotate(0,680,392)"/><rect x="671" y="419" width="18" height="18" transform="rotate(0,680,428)"/><rect x="671" y="509" width="18" height="18" transform="rotate(0,680,518)"/><rect x="671" y="545" width="18" height="18" transform="rotate(0,680,554)"/><rect x="671" y="563" width="18" height="18" transform="rotate(0,680,572)"/><rect x="671" y="581" width="18" height="18" transform="rotate(0,680,590)"/><rect x="671" y="599" width="18" height="18" transform="rotate(0,680,608)"/><rect x="671" y="617" width="18" height="18" transform="rotate(0,680,626)"/><rect x="671" y="635" width="18" height="18" transform="rotate(0,680,644)"/><rect x="671" y="653" width="18" height="18" transform="rotate(0,680,662)"/><rect x="671" y="689" width="18" height="18" transform="rotate(0,680,698)"/><rect x="689" y="329" width="18" height="18" transform="rotate(0,698,338)"/><rect x="689" y="365" width="18" height="18" transform="rotate(0,698,374)"/><rect x="689" y="383" width="18" height="18" transform="rotate(0,698,392)"/><rect x="689" y="419" width="18" height="18" transform="rotate(0,698,428)"/><rect x="689" y="437" width="18" height="18" transform="rotate(0,698,446)"/><rect x="689" y="473" width="18" height="18" transform="rotate(0,698,482)"/><rect x="689" y="509" width="18" height="18" transform="rotate(0,698,518)"/><rect x="689" y="527" width="18" height="18" transform="rotate(0,698,536)"/><rect x="689" y="617" width="18" height="18" transform="rotate(0,698,626)"/><rect x="689" y="671" width="18" height="18" transform="rotate(0,698,680)"/><rect x="707" y="329" width="18" height="18" transform="rotate(0,716,338)"/><rect x="707" y="347" width="18" height="18" transform="rotate(0,716,356)"/><rect x="707" y="383" width="18" height="18" transform="rotate(0,716,392)"/><rect x="707" y="437" width="18" height="18" transform="rotate(0,716,446)"/><rect x="707" y="455" width="18" height="18" transform="rotate(0,716,464)"/><rect x="707" y="473" width="18" height="18" transform="rotate(0,716,482)"/><rect x="707" y="545" width="18" height="18" transform="rotate(0,716,554)"/><rect x="707" y="599" width="18" height="18" transform="rotate(0,716,608)"/><rect x="707" y="689" width="18" height="18" transform="rotate(0,716,698)"/><rect x="725" y="329" width="18" height="18" transform="rotate(0,734,338)"/><rect x="725" y="347" width="18" height="18" transform="rotate(0,734,356)"/><rect x="725" y="365" width="18" height="18" transform="rotate(0,734,374)"/><rect x="725" y="383" width="18" height="18" transform="rotate(0,734,392)"/><rect x="725" y="401" width="18" height="18" transform="rotate(0,734,410)"/><rect x="725" y="437" width="18" height="18" transform="rotate(0,734,446)"/><rect x="725" y="473" width="18" height="18" transform="rotate(0,734,482)"/><rect x="725" y="527" width="18" height="18" transform="rotate(0,734,536)"/><rect x="725" y="545" width="18" height="18" transform="rotate(0,734,554)"/><rect x="725" y="563" width="18" height="18" transform="rotate(0,734,572)"/><rect x="725" y="617" width="18" height="18" transform="rotate(0,734,626)"/><rect x="725" y="635" width="18" height="18" transform="rotate(0,734,644)"/><rect x="725" y="671" width="18" height="18" transform="rotate(0,734,680)"/><rect x="743" y="347" width="18" height="18" transform="rotate(0,752,356)"/><rect x="743" y="383" width="18" height="18" transform="rotate(0,752,392)"/><rect x="743" y="401" width="18" height="18" transform="rotate(0,752,410)"/><rect x="743" y="419" width="18" height="18" transform="rotate(0,752,428)"/><rect x="743" y="437" width="18" height="18" transform="rotate(0,752,446)"/><rect x="743" y="455" width="18" height="18" transform="rotate(0,752,464)"/><rect x="743" y="509" width="18" height="18" transform="rotate(0,752,518)"/><rect x="743" y="545" width="18" height="18" transform="rotate(0,752,554)"/><rect x="743" y="581" width="18" height="18" transform="rotate(0,752,590)"/><rect x="743" y="599" width="18" height="18" transform="rotate(0,752,608)"/><rect x="743" y="635" width="18" height="18" transform="rotate(0,752,644)"/><rect x="743" y="653" width="18" height="18" transform="rotate(0,752,662)"/><rect x="743" y="671" width="18" height="18" transform="rotate(0,752,680)"/></clipPath><clipPath id="clip-path-corners-square-color-0-0"><rect x="239" y="185" width="18" height="18" transform="rotate(0,248,194)"/><rect x="239" y="203" width="18" height="18" transform="rotate(0,248,212)"/><rect x="239" y="221" width="18" height="18" transform="rotate(0,248,230)"/><rect x="239" y="239" width="18" height="18" transform="rotate(0,248,248)"/><rect x="239" y="257" width="18" height="18" transform="rotate(0,248,266)"/><rect x="239" y="275" width="18" height="18" transform="rotate(0,248,284)"/><rect x="239" y="293" width="18" height="18" transform="rotate(0,248,302)"/><rect x="257" y="185" width="18" height="18" transform="rotate(0,266,194)"/><rect x="257" y="293" width="18" height="18" transform="rotate(0,266,302)"/><rect x="275" y="185" width="18" height="18" transform="rotate(0,284,194)"/><rect x="275" y="293" width="18" height="18" transform="rotate(0,284,302)"/><rect x="293" y="185" width="18" height="18" transform="rotate(0,302,194)"/><rect x="293" y="293" width="18" height="18" transform="rotate(0,302,302)"/><rect x="311" y="185" width="18" height="18" transform="rotate(0,320,194)"/><rect x="311" y="293" width="18" height="18" transform="rotate(0,320,302)"/><rect x="329" y="185" width="18" height="18" transform="rotate(0,338,194)"/><rect x="329" y="293" width="18" height="18" transform="rotate(0,338,302)"/><rect x="347" y="185" width="18" height="18" transform="rotate(0,356,194)"/><rect x="347" y="203" width="18" height="18" transform="rotate(0,356,212)"/><rect x="347" y="221" width="18" height="18" transform="rotate(0,356,230)"/><rect x="347" y="239" width="18" height="18" transform="rotate(0,356,248)"/><rect x="347" y="257" width="18" height="18" transform="rotate(0,356,266)"/><rect x="347" y="275" width="18" height="18" transform="rotate(0,356,284)"/><rect x="347" y="293" width="18" height="18" transform="rotate(0,356,302)"/></clipPath><clipPath id="clip-path-corners-dot-color-0-0"><path d="m 275 221 m 27.039 11.147 c 13.5 -13.346 26.884 -6.673 26.961 6.634 c 0.039 10.916 -17.936 26.267 -24.57 31.513 c -1.427 1.119 -3.394 1.119 -4.821 0 c -6.596 -5.246 -24.609 -20.597 -24.609 -31.474 c 0 -13.346 13.5 -20.019 27.039 -6.673 z"/></clipPath><clipPath id="clip-path-corners-square-color-1-0"><rect x="635" y="185" width="18" height="18" transform="rotate(0,644,194)"/><rect x="635" y="203" width="18" height="18" transform="rotate(0,644,212)"/><rect x="635" y="221" width="18" height="18" transform="rotate(0,644,230)"/><rect x="635" y="239" width="18" height="18" transform="rotate(0,644,248)"/><rect x="635" y="257" width="18" height="18" transform="rotate(0,644,266)"/><rect x="635" y="275" width="18" height="18" transform="rotate(0,644,284)"/><rect x="635" y="293" width="18" height="18" transform="rotate(0,644,302)"/><rect x="653" y="185" width="18" height="18" transform="rotate(0,662,194)"/><rect x="653" y="293" width="18" height="18" transform="rotate(0,662,302)"/><rect x="671" y="185" width="18" height="18" transform="rotate(0,680,194)"/><rect x="671" y="293" width="18" height="18" transform="rotate(0,680,302)"/><rect x="689" y="185" width="18" height="18" transform="rotate(0,698,194)"/><rect x="689" y="293" width="18" height="18" transform="rotate(0,698,302)"/><rect x="707" y="185" width="18" height="18" transform="rotate(0,716,194)"/><rect x="707" y="293" width="18" height="18" transform="rotate(0,716,302)"/><rect x="725" y="185" width="18" height="18" transform="rotate(0,734,194)"/><rect x="725" y="293" width="18" height="18" transform="rotate(0,734,302)"/><rect x="743" y="185" width="18" height="18" transform="rotate(0,752,194)"/><rect x="743" y="203" width="18" height="18" transform="rotate(0,752,212)"/><rect x="743" y="221" width="18" height="18" transform="rotate(0,752,230)"/><rect x="743" y="239" width="18" height="18" transform="rotate(0,752,248)"/><rect x="743" y="257" width="18" height="18" transform="rotate(0,752,266)"/><rect x="743" y="275" width="18" height="18" transform="rotate(0,752,284)"/><rect x="743" y="293" width="18" height="18" transform="rotate(0,752,302)"/></clipPath><clipPath id="clip-path-corners-dot-color-1-0"><path d="m 671 221 m 27.039 11.147 c 13.5 -13.346 26.884 -6.673 26.961 6.634 c 0.039 10.916 -17.936 26.267 -24.57 31.513 c -1.427 1.119 -3.394 1.119 -4.821 0 c -6.596 -5.246 -24.609 -20.597 -24.609 -31.474 c 0 -13.346 13.5 -20.019 27.039 -6.673 z"/></clipPath><clipPath id="clip-path-corners-square-color-0-1"><rect x="239" y="581" width="18" height="18" transform="rotate(0,248,590)"/><rect x="239" y="599" width="18" height="18" transform="rotate(0,248,608)"/><rect x="239" y="617" width="18" height="18" transform="rotate(0,248,626)"/><rect x="239" y="635" width="18" height="18" transform="rotate(0,248,644)"/><rect x="239" y="653" width="18" height="18" transform="rotate(0,248,662)"/><rect x="239" y="671" width="18" height="18" transform="rotate(0,248,680)"/><rect x="239" y="689" width="18" height="18" transform="rotate(0,248,698)"/><rect x="257" y="581" width="18" height="18" transform="rotate(0,266,590)"/><rect x="257" y="689" width="18" height="18" transform="rotate(0,266,698)"/><rect x="275" y="581" width="18" height="18" transform="rotate(0,284,590)"/><rect x="275" y="689" width="18" height="18" transform="rotate(0,284,698)"/><rect x="293" y="581" width="18" height="18" transform="rotate(0,302,590)"/><rect x="293" y="689" width="18" height="18" transform="rotate(0,302,698)"/><rect x="311" y="581" width="18" height="18" transform="rotate(0,320,590)"/><rect x="311" y="689" width="18" height="18" transform="rotate(0,320,698)"/><rect x="329" y="581" width="18" height="18" transform="rotate(0,338,590)"/><rect x="329" y="689" width="18" height="18" transform="rotate(0,338,698)"/><rect x="347" y="581" width="18" height="18" transform="rotate(0,356,590)"/><rect x="347" y="599" width="18" height="18" transform="rotate(0,356,608)"/><rect x="347" y="617" width="18" height="18" transform="rotate(0,356,626)"/><rect x="347" y="635" width="18" height="18" transform="rotate(0,356,644)"/><rect x="347" y="653" width="18" height="18" transform="rotate(0,356,662)"/><rect x="347" y="671" width="18" height="18" transform="rotate(0,356,680)"/><rect x="347" y="689" width="18" height="18" transform="rotate(0,356,698)"/></clipPath><clipPath id="clip-path-corners-dot-color-0-1"><path d="m 275 617 m 27.039 11.147 c 13.5 -13.346 26.884 -6.673 26.961 6.634 c 0.039 10.916 -17.936 26.267 -24.57 31.513 c -1.427 1.119 -3.394 1.119 -4.821 0 c -6.596 -5.246 -24.609 -20.597 -24.609 -31.474 c 0 -13.346 13.5 -20.019 27.039 -6.673 z"/></clipPath></defs><defs/><polygon fill="#000000" points="864.31,551.09 980.65,652.92 869.6,740.63"/>
			<polygon fill="#000000" points="135.69,551.09 19.35,652.92 130.4,740.63"/>
			<path fill="#000000" d="M878.8,539.58V116.77c0-24.22-19.63-43.85-43.85-43.85H165.06c-24.22,0-43.85,19.63-43.85,43.85v422.81L1.38,632.35 v599.37c0,37.48,30.49,67.97,67.97,67.97h861.31c37.48,0,67.97-30.49,67.97-67.97V632.35L878.8,539.58z M962.69,689.55v458.25 L666.74,918.67L962.69,689.55z M958.9,647.04l-80.1,62.02V585.02L958.9,647.04z M165.06,105.8h669.88 c6.04,0,10.96,4.92,10.96,10.96v617.75L637.4,895.95l-94.56-73.21c-25.22-19.53-60.44-19.52-85.66,0l-94.56,73.21L154.1,734.52 V116.77C154.1,110.72,159.01,105.8,165.06,105.8z M333.26,918.67L37.31,1147.8V689.55L333.26,918.67z M121.2,709.05l-80.1-62.02 l80.1-62.02V709.05z M930.65,1263.75H69.35c-17.66,0-32.03-14.37-32.03-32.03v-38.47l441.86-342.09c12.26-9.5,29.4-9.5,41.66,0 l441.85,342.09v38.47C962.69,1249.38,948.32,1263.75,930.65,1263.75z"/>
			<text fill="#000000" font-size="90" x="50%" y="1160" dominant-baseline="middle" text-anchor="middle" font-family="sans-serif" font-weight="600">Scan me!</text><rect x="208" y="154" height="584" width="584" clip-path="url('#clip-path-background-color')" fill="#ffffff"/><rect x="239" y="185" height="522" width="522" clip-path="url('#clip-path-dot-color')" fill="#000000"/><rect x="239" y="185" height="126" width="126" clip-path="url('#clip-path-corners-square-color-0-0')" fill="#000000"/><rect x="275" y="221" height="54" width="54" clip-path="url('#clip-path-corners-dot-color-0-0')" fill="#000000"/><rect x="635" y="185" height="126" width="126" clip-path="url('#clip-path-corners-square-color-1-0')" fill="#000000"/><rect x="671" y="221" height="54" width="54" clip-path="url('#clip-path-corners-dot-color-1-0')" fill="#000000"/><rect x="239" y="581" height="126" width="126" clip-path="url('#clip-path-corners-square-color-0-1')" fill="#000000"/><rect x="275" y="617" height="54" width="54" clip-path="url('#clip-path-corners-dot-color-0-1')" fill="#000000"/></svg>